<svg xmlns="http://www.w3.org/2000/svg" viewBox="0 0 640 520" role="img" aria-label="OorjaMan - We clean. You generate.">
  <defs>
    <linearGradient id="gLeaf" x1="0%" y1="100%" x2="100%" y2="0%">
      <stop offset="0%" stop-color="#1a734f"/>
      <stop offset="100%" stop-color="#2fa56f"/>
    </linearGradient>
    <linearGradient id="gPanel" x1="0%" y1="0%" x2="100%" y2="100%">
      <stop offset="0%" stop-color="#5cbd8c"/>
      <stop offset="100%" stop-color="#1f8660"/>
    </linearGradient>
    <linearGradient id="gNavy" x1="0%" y1="50%" x2="100%" y2="50%">
      <stop offset="0%" stop-color="#163a52"/>
      <stop offset="100%" stop-color="#0f2938"/>
    </linearGradient>
    <clipPath id="ring">
      <circle cx="320" cy="150" r="108"/>
    </clipPath>
  </defs>
  <g clip-path="url(#ring)">
    <path fill="url(#gNavy)" d="M320 42c60 0 108 48 108 108s-48 108-108 108V42c0 0 66 0 108 0 0-60-48-108-108-108z"/>
    <path fill="url(#gPanel)" d="M212 42h108v216H212z"/>
    <g stroke="#ffffff" stroke-width="6" opacity="0.92">
      <line x1="212" y1="78" x2="320" y2="78"/>
      <line x1="212" y1="114" x2="320" y2="114"/>
      <line x1="212" y1="150" x2="320" y2="150"/>
      <line x1="212" y1="186" x2="320" y2="186"/>
      <line x1="248" y1="42" x2="248" y2="258"/>
      <line x1="284" y1="42" x2="284" y2="258"/>
    </g>
    <path fill="url(#gLeaf)" d="M212 150c0-30 20-54 48-65 4 22 19 43 40 54-19 10-40 11-60 11 0 0-28 0-28 0z"/>
    <path fill="#9fc93c" opacity="0.85" d="M230 176c15-5 28-16 37-32-10 19-25 32-45 39 2-2 6-5 8-7z"/>
  </g>
  <text x="320" y="330" text-anchor="middle" font-family="Plus Jakarta Sans,Segoe UI,Helvetica Neue,Arial,sans-serif" font-size="56" font-weight="700">
    <tspan fill="#1f8660">Oorja</tspan><tspan fill="#0f2938">Man</tspan>
  </text>
  <text x="320" y="380" text-anchor="middle" font-family="Plus Jakarta Sans,Segoe UI,Helvetica Neue,Arial,sans-serif" font-size="18" font-weight="500" fill="#516a7b" letter-spacing="3">
    WE CLEAN. YOU GENERATE.
  </text>
</svg>
