<svg xmlns="http://www.w3.org/2000/svg" viewBox="0 0 512 512" role="img" aria-hidden="true">
  <defs>
    <radialGradient id="sunCore" cx="50%" cy="50%" r="50%">
      <stop offset="0%" stop-color="#fffef9" stop-opacity="0"/>
      <stop offset="42%" stop-color="#fff6dc" stop-opacity="0.5"/>
      <stop offset="70%" stop-color="#fdeeb8" stop-opacity="0.24"/>
      <stop offset="100%" stop-color="#ffffff" stop-opacity="0"/>
    </radialGradient>
  </defs>
  <circle cx="256" cy="256" r="210" fill="url(#sunCore)"/>
  <g fill="#f3e2a0" opacity="0.22">
    <polygon points="256,256 245.6,164.6 229.7,25.5 282.3,25.5 266.4,164.6"/>
    <polygon points="256,256 286.3,169.1 332.4,36.9 379.7,59.7 305.0,178.2"/>
    <polygon points="256,256 321.0,190.9 419.8,91.7 452.6,132.8 334.0,207.2"/>
    <polygon points="256,256 342.8,225.5 474.9,179.1 486.6,230.3 347.4,245.8"/>
    <polygon points="256,256 347.4,266.2 486.6,281.7 474.9,332.9 342.8,286.5"/>
    <polygon points="256,256 334.0,304.8 452.6,379.2 419.8,420.3 321.0,321.1"/>
    <polygon points="256,256 305.0,333.8 379.7,452.3 332.4,475.1 286.3,342.9"/>
    <polygon points="256,256 266.4,347.4 282.3,486.5 229.7,486.5 245.6,347.4"/>
    <polygon points="256,256 225.7,342.9 179.6,475.1 132.3,452.3 207.0,333.8"/>
    <polygon points="256,256 191.0,321.1 92.2,420.3 59.4,379.2 178.0,304.8"/>
    <polygon points="256,256 169.2,286.5 37.1,332.9 25.4,281.7 164.6,266.2"/>
    <polygon points="256,256 164.6,245.8 25.4,230.3 37.1,179.1 169.2,225.5"/>
    <polygon points="256,256 178.0,207.2 59.4,132.8 92.2,91.7 191.0,190.9"/>
    <polygon points="256,256 207.0,178.2 132.3,59.7 179.6,36.9 225.7,169.1"/>
  </g>
</svg>
